<svg width="200" height="130" xmlns="http://www.w3.org/2000/svg">
 <g id="Layer_1">
  <title>Layer 1</title>
  <path stroke="#999999" d="m32.21428,16.29592c-0.71006,0 -0.94729,0.07706 -4.97042,4.48179c-3.79304,4.15281 -10.04288,12.38318 -23.78698,25.9944c-7.15436,7.08519 -14.7937,16.19013 -19.52663,21.06443c-5.2557,5.41268 -6.74556,7.61905 -8.16568,9.41176c-1.06509,1.34454 -2.13018,3.58543 -2.84024,5.82633l-0.35503,1.34454l-0.35503,0.44819" id="svg_18" stroke-width="13" fill="none"/>
  <path d="m32.62245,13.43878c0.40816,0.40816 0.51965,1.53466 1.22449,2.44897c3.46198,4.49088 5.69581,8.27139 9.38775,13.46939c2.75632,3.88071 6.9127,10.47514 10.61224,15.91837c2.93821,4.32307 5.77722,9.35667 8.97959,15.91837c4.16385,8.53178 7.82737,14.65318 11.02041,20.40817c2.92378,5.2697 7.78902,15.08063 10.61225,19.59183c3.30521,5.28136 6.46561,10.6562 9.79591,15.51021c4.80503,7.00345 7.40505,10.46327 10.20409,13.87755c2.92766,3.57117 6.12244,6.53061 7.34693,7.75511l0.81633,0.81631" id="svg_19" stroke-width="13" stroke="#999999" fill="none"/>
  <path d="m83.23469,95.07142c0.40816,-0.40816 0.80414,-0.82506 2.85715,-3.67346c3.24609,-4.50371 6.59339,-9.34962 9.79591,-14.69388c2.9147,-4.86394 6.01024,-9.98514 7.7551,-12.65306c0.99911,-1.52766 2.44898,-3.67348 5.30612,-6.53061c0.81633,-0.81633 1.77396,-1.51244 2.44898,-2.44898c1.06731,-1.4808 2.22808,-2.73202 2.44897,-3.2653c0.1562,-0.3771 -0.36821,-1.15283 0.40816,-1.63265c0.3472,-0.21458 0.40816,-0.40816 0.81633,-0.81633l0,-0.40816" id="svg_22" stroke-width="13" stroke="#999999" fill="none"/>
  <path d="m117.11225,54.66327c0,0.40816 0.62538,0.97878 2.04082,2.44898c4.47597,4.64918 8.30247,12.42652 13.06122,19.18366c5.02962,7.14175 10.68057,15.84468 26.53061,30.61226c3.82436,3.56317 9.79591,8.97958 13.06123,12.24489c3.2653,3.2653 5.03925,6.00223 5.71428,6.93878c2.13461,2.96162 2.15184,5.18224 4.89796,7.7551c1.48929,1.39532 3.2653,3.67348 4.89795,4.89796l0.81633,0.40816" id="svg_24" stroke-width="13" stroke="#999999" fill="none"/>
  <path stroke="#999999" d="m111.02041,51.31036c0.37677,0 0.78221,-0.11981 1.1303,0c0.49227,0.16943 1.18766,0.69961 1.88383,0.93923c1.47681,0.50831 1.82834,1.61957 2.2606,1.87846c0.68346,0.40933 0.86388,0.71785 1.1303,0.93923c0.26642,0.22138 0.86388,0.0917 1.1303,0.31308c0.26641,0.22138 0.48711,0.0917 0.75353,0.31307c0.26642,0.22138 0.37677,0.31308 0.75354,0.62615l0,0.31308l0.37677,0l0.37676,0" id="svg_26" stroke-width="13" fill="none"/>
  <path d="m32.65306,17.04082c0.40816,-0.40816 0.81633,-0.40816 1.22449,-0.40816c0.81633,0 1.22449,0 2.44898,0c0.40816,0 0.81633,0 1.22449,0l0.40816,0l0.40816,0" id="svg_27" stroke-width="13" stroke="#999999" fill="none"/>
 </g>
</svg>