<svg width="250" height="210" xmlns="http://www.w3.org/2000/svg">
  <g id="Layer_1">
    <title>Layer 1</title>
    
    <!-- Polyline with round cap and join -->
    <polyline stroke-linecap="round" stroke-linejoin="round" id="svg_21" points="268.16180896759033,133.36916828155518 268.16180896759033,133.36916828155518 " stroke="#000" fill="none"/>

    <!-- Path with rounded ends and joins -->
    <path stroke-width="13" stroke-linecap="round" stroke-linejoin="round" d="m112.37892,-0.49754c0,1.39786 -0.35423,2.71083 -0.71788,4.89251c-0.57494,3.44952 -0.30899,8.48012 0.71788,11.18289c1.67071,4.39732 3.98273,7.07785 5.74266,12.58075c1.82345,5.70164 4.05119,12.03215 9.3319,20.26898c5.48202,8.5509 13.79209,16.63635 24.40646,27.95723c5.82777,6.2157 11.31418,12.07519 17.94592,17.47326c9.80558,7.98149 18.46143,13.59715 28.71347,19.57005c12.68383,7.3897 24.41977,13.2459 43.0702,20.26898c12.93034,4.86911 28.66182,8.67948 44.50585,11.1829c20.04134,3.16661 30.14912,2.79572 38.7632,2.79572l5.02483,0l3.58919,0l3.58919,0" id="svg_29" fill="none" stroke="#ffcc00"/>

    <!-- Rounded path with stroke width 13 -->
    <path stroke-width="13" stroke-linecap="round" stroke-linejoin="round" d="m211.39664,149.22869c0,0.71429 -0.35248,2.05612 -0.71429,4.28574c-0.34326,2.1152 -1.62451,4.91786 -2.14288,6.4286c-1.18201,3.44504 -1.83539,5.09503 -2.85718,7.85719c-1.10828,2.99599 -2.40051,5.15369 -4.28571,10.00006c-1.15802,2.9771 -2.49731,5.64844 -2.85718,8.57147c-0.6109,4.96255 -1.06873,7.07701 -1.42859,10.00005c-0.17456,1.41789 0,2.14287 -0.71429,2.85716l0,0.71429" id="svg_43" stroke="#ffcc00" fill="none"/>

    <!-- Rounded line with stroke width 13 -->
    <path stroke-width="13" stroke-linecap="round" stroke-linejoin="round" id="svg_44" d="m90.68169,73.94258l-45.71453,27.85729" stroke="#ffcc00" fill="none"/>

    <!-- Rounded path with stroke width 13 -->
    <path stroke-width="13" stroke-linecap="round" stroke-linejoin="round" d="m60.68154,23.94231c-0.71429,0 -2.14429,-0.04438 -2.85718,0c-5.74762,0.35784 -9.28577,0.7143 -12.85718,1.42858c-3.57147,0.7143 -8.57153,1.42858 -10.71436,1.42858c-2.85718,0 -4.28577,-0.00001 -6.42865,0.71429c-2.14282,0.71428 -3.57141,0.71429 -4.28571,0.71429c-1.42859,0 -3.35248,0.32772 -4.28577,0.71429c-0.65991,0.27335 -1.42853,0 -2.14282,0.71429c-0.71429,0.71429 -1.42859,0.71429 -2.14288,0.71429c-0.71429,0 -1.42859,0 -2.14288,0c-0.71429,0 -1.42859,0 -2.14288,0c-0.71429,0 -1.42853,0 -2.14282,0l-0.71429,0l-0.71429,0l-0.71429,0" id="svg_45" stroke="#ffcc00" fill="none"/>

    <!-- Rounded path with stroke width 13 -->
    <path stroke-width="13" stroke-linecap="round" stroke-linejoin="round" d="m144.96767,114.65708c-1.22445,0.82299 -1.33834,1.39294 -2.44896,2.46896c-2.10728,2.04159 -3.9217,5.006 -7.95923,7.40688c-2.30859,1.37278 -4.39966,3.03894 -5.51022,4.11492c-2.10723,2.0416 -3.06126,3.29195 -4.89802,4.93791c-1.83676,1.64598 -4.82546,4.27153 -6.73472,5.7609c-1.18412,0.92368 -2.70546,1.99072 -3.67346,3.29195c-0.96805,1.30126 -1.72925,1.72652 -2.44901,3.29195c-0.64375,1.40013 -1.72925,1.72652 -2.44901,3.29193c-0.3219,0.70008 -1.2245,1.64598 -1.83676,2.46896l0,0.82299l-0.61225,0" id="svg_46" stroke="#ffcc00" fill="none"/>
  </g>
</svg>
